PathFileType	4	(X/Y/Z)	C:/Users/opensim2020/Desktop/walking_exp_matlab/subject03_walking07_straight_04.trc																																																																																																																																								
DataRate	CameraRate	NumFrames	NumMarkers	Units	OrigDataRate	OrigDataStartFrame	OrigNumFrames																																																																																																																																				
100	100	8	46	mm	100	3124	265																																																																																																																																				
Frame#	Time	LFHD			RFHD			LBHD			RBHD			C7			T10			CLAV			STRN			RBAK			LSHO			LUPA			LELB			LFRM			LWRA			LWRB			LFIN			RSHO			RUPA			RELB			RFRM			RWRA			RWRB			RFIN			LASI			RASI			LPSI			RPSI			LTHI			LKNE			LTIB			LANK			LHEE			LTOE			RTHI			RKNE			RTIB			RANK			RHEE			RTOE			*39			*40			*41			*42			*43			*44			*45		
		X1	Y1	Z1	X2	Y2	Z2	X3	Y3	Z3	X4	Y4	Z4	X5	Y5	Z5	X6	Y6	Z6	X7	Y7	Z7	X8	Y8	Z8	X9	Y9	Z9	X10	Y10	Z10	X11	Y11	Z11	X12	Y12	Z12	X13	Y13	Z13	X14	Y14	Z14	X15	Y15	Z15	X16	Y16	Z16	X17	Y17	Z17	X18	Y18	Z18	X19	Y19	Z19	X20	Y20	Z20	X21	Y21	Z21	X22	Y22	Z22	X23	Y23	Z23	X24	Y24	Z24	X25	Y25	Z25	X26	Y26	Z26	X27	Y27	Z27	X28	Y28	Z28	X29	Y29	Z29	X30	Y30	Z30	X31	Y31	Z31	X32	Y32	Z32	X33	Y33	Z33	X34	Y34	Z34	X35	Y35	Z35	X36	Y36	Z36	X37	Y37	Z37	X38	Y38	Z38	X39	Y39	Z39	X40	Y40	Z40	X41	Y41	Z41	X42	Y42	Z42	X43	Y43	Z43	X44	Y44	Z44	X45	Y45	Z45	X46	Y46	Z46
																																																																																																																																											
166	1.65	515.07349	1596.30029	945.55383	504.88162	1603.21277	1077.70764	383.00897	1567.43152	940.34113	377.6814	1573.43896	1070.90576	334.40891	1406.31213	999.3335	296.42352	1090.31091	1002.53125	453.77524	1326.51025	1005.99335	495.08066	1162.7074	999.43988	273.6055	1228.89502	1093.86926	419.41986	1364.6665	850.17651	459.23151	1179.4397	771.4856	506.32803	1066.51404	758.56641	584.45868	964.38116	771.6153	649.17926	870.2323	814.38281	635.70325	862.83221	760.88635	691.61957	803.75183	778.09869	402.0946	1349.35571	1164.38647	388.53638	1127.97534	1239.58374	397.5889	1015.85864	1256.31702	406.41571	879.1925	1262.63135	433.02182	781.66364	1231.61633	399.45309	779.24628	1274.34534	419.21112	707.10919	1266.93909	464.10025	930.86658	880.53101	471.11807	927.81909	1119.09558	304.15237	950.50677	936.44647	308.56586	949.51611	1084.92297	378.62228	631.54004	851.30652	352.5123	455.49448	891.58618	264.95926	276.95203	892.47388	202.5188	76.26765	936.065	156.96127	46.37986	972.49548	350.18283	29.68219	956.17456	483.00186	637.21912	1174.03967	564.61542	475.65359	1141.8374	563.0423	287.19055	1147.49255	594.13635	70.79147	1107.28723	561.46094	34.69648	1049.80957	737.1214	51.5605	1101.09827	437.61157	1667.27734	989.98596	NaN	NaN	NaN	NaN	NaN	NaN	NaN	NaN	NaN	NaN	NaN	NaN	NaN	NaN	NaN	NaN	NaN	NaN
167	1.66	524.1817	1595.46582	946.39801	513.99493	1602.23596	1078.54053	392.1394	1566.31763	941.22382	386.905	1572.1427	1071.87854	343.71667	1405.28162	1000.33917	305.64984	1089.22888	1003.51849	463.16843	1325.34058	1006.59363	504.3045	1161.48425	999.83179	283.15909	1227.90637	1094.87537	428.42545	1363.47363	850.98529	468.84665	1178.68262	772.30511	516.57654	1066.07983	759.42407	596.09845	965.17139	772.87982	662.09937	872.22931	816.23438	648.92377	864.41644	762.70135	705.84937	806.47949	780.23206	411.90378	1348.27979	1165.09265	397.20462	1126.94434	1240.17883	405.32715	1014.78534	1256.99805	412.83966	878.03656	1263.44263	438.76465	780.33765	1232.44824	404.84808	778.14569	1275.22705	423.78439	705.72919	1267.91772	473.34	930.1712	881.05579	480.94922	926.51434	1119.46704	313.21521	949.26428	937.49658	318.26245	948.11621	1085.94812	385.55341	631.13599	851.42487	357.87186	455.34552	891.64758	268.05426	277.64545	892.60406	203.30681	77.41299	936.1026	157.85315	47.8441	972.45087	350.1438	29.59696	956.24622	489.15225	634.36072	1174.93896	571.21747	473.2294	1141.14819	576.03021	286.02985	1147.67212	616.61969	70.88812	1108.98267	585.26172	34.12944	1051.29199	760.85303	54.5354	1102.33154	446.38187	1666.38489	990.65912	NaN	NaN	NaN	NaN	NaN	NaN	NaN	NaN	NaN	NaN	NaN	NaN	NaN	NaN	NaN	NaN	NaN	NaN
168	1.67	533.31262	1594.73889	947.20898	523.23804	1601.34778	1079.37659	401.41257	1565.29504	942.15173	396.21045	1570.98975	1072.73376	353.12143	1404.32495	1001.23383	315.0043	1088.24548	1004.64001	472.64691	1324.34082	1007.21417	513.63031	1160.401	1000.24707	292.82153	1226.92493	1095.86121	437.41513	1362.4342	851.81598	478.242	1177.89355	773.2182	526.62152	1065.60742	760.33215	607.43945	965.90784	774.17767	674.71252	874.1651	818.05914	661.59406	865.86182	764.56946	719.51941	809.04083	782.37799	421.71887	1347.3269	1165.90198	406.01126	1126.00818	1240.76672	413.2605	1013.75903	1257.60974	419.49326	876.97913	1264.18201	444.51123	778.90991	1233.34607	410.51498	777.13824	1276.10583	428.6044	704.46637	1268.76819	481.74982	929.05151	880.86206	490.91202	925.31201	1119.83618	322.35858	948.22632	938.66455	328.17795	946.95984	1087.11902	392.70117	630.81403	851.58093	363.55487	455.11386	891.61426	271.41885	278.47452	892.63556	203.8989	79.04866	936.11676	158.20891	49.96684	972.43408	350.30875	29.586	956.22894	495.97974	632.36102	1176.43005	577.94281	470.98611	1140.81152	588.4566	285.06491	1147.90173	636.90631	71.19756	1110.60791	606.73767	33.54964	1052.76038	782.1203	58.15156	1103.36804	455.39642	1665.34106	991.64764	NaN	NaN	NaN	NaN	NaN	NaN	NaN	NaN	NaN	NaN	NaN	NaN	NaN	NaN	NaN	NaN	NaN	NaN
169	1.68	542.62744	1594.06543	948.07855	532.59326	1600.55237	1080.23987	410.75204	1564.39905	942.98444	405.61639	1570.05139	1073.74768	362.62698	1403.31287	1002.15857	324.48105	1087.36462	1005.70508	482.13168	1323.46094	1007.90613	523.07324	1159.51746	1000.66998	302.56525	1225.95386	1096.84863	446.45856	1361.52502	852.63593	487.53256	1177.15515	774.20099	536.30481	1065.11646	761.34979	618.21503	966.401	775.4585	686.79199	875.89337	819.88947	673.75348	867.15027	766.40631	732.50922	811.31616	784.39746	431.57108	1346.42114	1166.7041	414.98077	1125.17285	1241.42749	421.44067	1012.81458	1258.1532	426.37109	876.02063	1264.92798	450.64374	777.72656	1234.29004	416.5264	776.24542	1276.91772	433.77466	703.2854	1269.58093	490.71179	928.2135	881.00916	501.06458	924.28961	1120.2522	331.58493	947.3432	940.14862	338.21088	946.00153	1088.35913	399.94009	630.58673	851.75079	369.57913	455.09576	891.54694	275.11484	279.38358	892.58691	204.94754	80.92828	935.90619	158.48886	52.57362	972.15753	350.36636	29.56973	956.28082	502.99496	630.40137	1176.65894	584.93781	468.93091	1140.6543	600.11255	284.28116	1148.14417	654.90088	71.6134	1111.60559	625.78461	33.04559	1053.93909	800.75452	61.9951	1104.13293	464.6095	1664.51978	992.53064	NaN	NaN	NaN	NaN	NaN	NaN	NaN	NaN	NaN	NaN	NaN	NaN	NaN	NaN	NaN	NaN	NaN	NaN
170	1.69	551.8963	1593.49536	948.89252	542.02063	1599.90015	1081.146	419.95142	1563.68408	944.07532	415.05505	1569.21606	1074.62439	372.06552	1402.59229	1003.29791	334.14691	1086.57434	1006.9342	491.71405	1322.75562	1008.63354	532.75726	1158.80444	1001.17377	312.46213	1225.01025	1097.82776	455.47382	1360.70984	853.4848	496.70044	1176.51416	775.21448	545.81219	1064.65674	762.48438	628.70923	966.92664	776.79364	698.48639	877.55859	821.59308	685.39307	868.29877	768.22809	744.8576	813.37805	786.41223	441.46051	1345.68518	1167.61304	424.07739	1124.43225	1242.05298	429.79123	1012.00946	1258.78943	433.56689	875.1568	1265.68909	457.04962	776.64838	1235.12292	422.81189	775.47644	1277.75916	439.24557	702.2926	1270.32385	499.952	927.55011	881.3338	511.35626	923.50421	1120.66382	341.2121	946.50397	941.37512	348.33191	945.34637	1089.69019	407.43436	630.49023	851.88312	375.92624	454.87393	891.28479	279.0929	280.35306	892.47858	206.02739	82.80276	935.60748	159.29071	55.07145	971.97528	350.60254	29.60766	956.20502	510.67871	629.07758	1176.84558	592.1925	467.2327	1140.72253	611.1062	283.6069	1148.42712	670.52423	71.73357	1112.11755	642.21814	32.60632	1054.6991	816.83313	65.11449	1104.51929	473.86328	1663.85669	993.54102	NaN	NaN	NaN	NaN	NaN	NaN	NaN	NaN	NaN	NaN	NaN	NaN	NaN	NaN	NaN	NaN	NaN	NaN
171	1.7	561.26373	1592.99634	949.55322	551.53491	1599.31787	1081.91089	429.4697	1563.06177	944.9353	424.61826	1568.58923	1075.65808	381.54422	1401.90491	1004.41925	344.09305	1085.79651	1008.05853	501.34872	1322.15637	1009.4502	542.4754	1158.25061	1001.75665	322.37149	1224.11633	1098.82507	464.61768	1360.12537	854.36145	505.65997	1175.82532	776.30054	555.00317	1064.13367	763.64941	638.75848	967.32843	778.15131	709.61035	878.9729	823.32623	696.4093	869.24768	770.05542	756.60681	815.14197	788.35406	451.24097	1345.12976	1168.75244	433.34836	1123.76233	1242.8092	438.3501	1011.27875	1259.54114	441.06049	874.38953	1266.37427	463.73795	775.61053	1235.90051	429.46265	774.81671	1278.55298	445.06412	701.36743	1271.00427	509.34494	926.87909	881.78302	521.81329	922.89557	1121.12134	350.92859	945.81116	942.80713	358.64291	944.88617	1091.0387	415.22711	630.39093	852.08545	382.85233	454.70459	891.0246	283.51035	281.41855	892.28302	207.17296	84.96941	935.23334	159.91727	58.11478	971.54987	350.79083	29.57353	956.17786	519.09137	628.14404	1176.49146	599.83148	465.8898	1140.3927	621.09631	282.98657	1148.63696	683.64929	71.68082	1112.46497	655.87903	32.16641	1055.15637	830.31781	66.9306	1104.474	483.06201	1663.99158	994.78839	NaN	NaN	NaN	NaN	NaN	NaN	NaN	NaN	NaN	NaN	NaN	NaN	NaN	NaN	NaN	NaN	NaN	NaN
172	1.71	570.7403	1592.66479	950.36578	561.1449	1598.92468	1082.74731	438.85574	1562.63696	945.95227	434.25183	1568.12097	1076.5824	391.21942	1401.32275	1005.5249	354.0285	1085.22607	1009.40692	511.0871	1321.73071	1010.31055	552.3941	1157.87805	1002.41833	332.47351	1223.34473	1099.87842	473.79477	1359.60645	855.21625	514.48315	1175.22485	777.43311	563.96747	1063.60107	764.89709	648.48383	967.61615	779.5556	720.30341	880.24591	824.98096	706.92676	869.961	771.86224	767.71051	816.60822	790.22229	461.27206	1344.45544	1169.63306	442.746	1123.15833	1243.55151	447.13309	1010.64508	1260.22473	448.83942	873.71564	1267.1427	470.79678	774.73853	1236.6073	436.49966	774.2077	1279.27734	451.24887	700.57452	1271.62048	518.99506	926.30603	882.31342	532.43231	922.47522	1121.6178	360.84268	945.33667	944.15723	369.05453	944.66144	1092.34192	423.52258	630.30298	852.40863	390.30545	454.56558	890.84918	288.27914	282.53653	892.03345	208.49741	87.56507	934.78558	160.83417	61.3988	971.05878	351.01273	29.54923	956.20605	528.37872	627.59125	1175.93701	607.96271	464.91287	1140.18433	630.12769	282.25674	1148.73279	693.93805	71.32222	1112.81519	666.40247	31.40566	1055.39624	840.98181	67.16788	1103.92603	492.81796	1662.91479	995.26086	NaN	NaN	NaN	NaN	NaN	NaN	NaN	NaN	NaN	NaN	NaN	NaN	NaN	NaN	NaN	NaN	NaN	NaN
173	1.72	580.19666	1592.255	951.14758	570.81982	1598.61292	1083.54114	448.25229	1562.43054	947.17877	443.93268	1567.85754	1077.6958	400.87274	1400.83826	1006.87524	364.25885	1084.70105	1010.5332	520.84412	1321.45825	1011.22998	562.4917	1157.67102	1003.18335	342.60501	1222.60791	1101.05981	482.99976	1359.27246	856.12811	523.19604	1174.56262	778.58478	572.6427	1063.04297	766.13934	657.75659	967.74957	780.90173	730.51965	881.29803	826.57385	716.89758	870.46014	773.64081	778.15393	817.75513	792.02472	471.22836	1344.06482	1170.68286	452.2554	1122.69055	1244.35315	456.16687	1010.10193	1260.88867	456.96771	873.17419	1267.81641	478.18262	773.99268	1237.34167	443.88348	773.72345	1280.02075	457.87097	699.86029	1272.22363	528.88263	925.84363	883.03589	543.15546	922.2179	1122.24011	371.00937	944.86725	945.48468	379.65784	944.64844	1093.63818	432.29941	630.12811	852.74988	398.51202	454.323	890.6167	293.505	283.73642	891.724	210.18513	90.32912	934.27124	161.8821	65.00275	970.51855	350.86115	29.07667	956.16888	538.7002	627.65985	1175.84045	616.72144	464.25967	1139.97961	638.25635	281.39996	1148.76941	701.65771	70.21217	1112.7926	673.69818	30.40262	1055.60962	848.7594	65.68484	1102.78455	502.39185	1662.67163	996.14752	NaN	NaN	NaN	NaN	NaN	NaN	NaN	NaN	NaN	NaN	NaN	NaN	NaN	NaN	NaN	NaN	NaN	NaN
